<?xml version="1.0" encoding="utf-8"?>
<!-- Svg Vector Icons : http://www.onlinewebfonts.com/icon -->
<!DOCTYPE svg PUBLIC "-//W3C//DTD SVG 1.1//EN" "http://www.w3.org/Graphics/SVG/1.1/DTD/svg11.dtd">
<svg version="1.1" xmlns="http://www.w3.org/2000/svg" xmlns:xlink="http://www.w3.org/1999/xlink" x="0px" y="0px" viewBox="0 0 1000 1000" enable-background="new 0 0 1000 1000" xml:space="preserve">
<metadata> Svg Vector Icons : http://www.onlinewebfonts.com/icon </metadata>
<g><path d="M885.5,636.5c0,28.9,23.4,52.3,52.3,52.3c28.9,0,52.3-23.4,52.3-52.3c0-28.9-23.4-52.3-52.3-52.3C908.9,584.3,885.5,607.7,885.5,636.5z"/><path d="M836.5,686.1c-28.2,0-56.4,0-84.6,0c1.7-126.1-3.3-258.9,2.5-380.9c26.6,0,53.1,0,79.7,0C839.8,427.1,834.9,559.9,836.5,686.1z"/><path d="M637.4,414.7c-24-15.6-66.4-24.5-97.1-22.4c-121.5,8.1-201.4,157.6-104.6,258.9c67.5,70.7,199.7,50,246.5-22.4C732.6,550.8,691.3,449.8,637.4,414.7z M560.2,616.3c-87.9,10.5-110-124.9-24.9-141.9C637.7,453.9,639.4,606.9,560.2,616.3z"/><path d="M241.5,305.2c-25.7,0-51.4,0-77.2,0C110.8,430,60.2,557.9,10,686.1c35.7,0,71.4,0,107,0c6.7-17.4,9.1-39,19.9-52.3c43.2,0,86.3,0,129.5,0c7.2,16.1,13.3,33.1,17.4,52.3c35.7,0,71.4,0,107,0C343.1,557.1,290.2,433.2,241.5,305.2z M161.9,554.1c12.5-41.5,27.3-80.6,37.3-124.5c19.7,35.9,27.2,84,42.3,124.5C215,554.1,188.4,554.1,161.9,554.1z"/></g>
</svg>