<?xml version="1.0" encoding="utf-8"?>
<!-- Svg Vector Icons : http://www.onlinewebfonts.com/icon -->
<!DOCTYPE svg PUBLIC "-//W3C//DTD SVG 1.1//EN" "http://www.w3.org/Graphics/SVG/1.1/DTD/svg11.dtd">
<svg version="1.1" xmlns="http://www.w3.org/2000/svg" xmlns:xlink="http://www.w3.org/1999/xlink" x="0px" y="0px" viewBox="0 0 1000 1000" enable-background="new 0 0 1000 1000" xml:space="preserve">
<metadata> Svg Vector Icons : http://www.onlinewebfonts.com/icon </metadata>
<g><g><g><path d="M251.1,635.5l92.6-5.9l1.1,73.4l65.1-11.3L378.7,228L136.3,731.8L215,723L251.1,635.5z M342.5,424.3V563l-58.8,5.4L342.5,424.3z"/><path d="M603.7,599.1c0,0,9.7-51.1-66.4-108.6c0,0-34.7-48.6,25.2-46.2c0,0,11.3-1.2,32.5,11.3l16.2-47.6c0,0-48.7-50-107.5-10.1c0,0-50,20-42.5,76.4c1.2,8.7-10.1,22.5,45.1,73.7c0,0,29.9,37.5,15.5,58.8c0,0,0,22.9-74.5,5l-14.8,58.7C432.5,670.5,579.9,701.3,603.7,599.1z"/><polygon points="617.5,655.9 676.1,650.5 701.1,535.3 737.6,640.5 812.4,629.7 761.2,496.4 846.3,373 776.3,373 708.9,470.5 757.4,199.3 687.7,199.3 611.2,655.9 "/><path d="M10,7.4v985.2h980V7.4H10z M961.2,963H37.5V34.4h923.7V963z"/></g><g></g><g></g><g></g><g></g><g></g><g></g><g></g><g></g><g></g><g></g><g></g><g></g><g></g><g></g><g></g></g><g></g><g></g><g></g><g></g><g></g><g></g><g></g><g></g><g></g><g></g><g></g><g></g><g></g><g></g><g></g></g>
</svg>