<?xml version="1.0" encoding="utf-8"?>
<!-- Svg Vector Icons : http://www.onlinewebfonts.com/icon -->
<!DOCTYPE svg PUBLIC "-//W3C//DTD SVG 1.1//EN" "http://www.w3.org/Graphics/SVG/1.1/DTD/svg11.dtd">
<svg version="1.1" xmlns="http://www.w3.org/2000/svg" xmlns:xlink="http://www.w3.org/1999/xlink" x="0px" y="0px" viewBox="0 0 1000 1000" enable-background="new 0 0 1000 1000" xml:space="preserve">
<metadata> Svg Vector Icons : http://www.onlinewebfonts.com/icon </metadata>
<g><path d="M377.5,397.9v367.5c0,12.1-8.3,20.4-20.4,20.4h-40.8c-12.1,0-20.4-8.3-20.4-20.4V397.9c0-12.1,8.3-20.4,20.4-20.4h40.8C369.2,377.5,377.5,385.8,377.5,397.9L377.5,397.9z M540.8,397.9v367.5c0,12.1-8.3,20.4-20.4,20.4h-40.8c-12.1,0-20.4-8.3-20.4-20.4V397.9c0-12.1,8.3-20.4,20.4-20.4h40.8C532.5,377.5,540.8,385.8,540.8,397.9L540.8,397.9z M704.2,397.9v367.5c0,12.1-8.3,20.4-20.4,20.4h-40.8c-12.1,0-20.4-8.3-20.4-20.4V397.9c0-12.1,8.3-20.4,20.4-20.4h40.8C695.9,377.5,704.2,385.8,704.2,397.9L704.2,397.9z M785.8,859.8V255H214.2v604.9c0,30.6,17.2,48.5,20.4,48.5h530.9C768.6,908.3,785.8,890.5,785.8,859.8L785.8,859.8z M357.1,173.3h285.8l-30.6-74.6c-3.2-3.8-6.4-6.4-10.9-7H399.2c-4.5,0.6-7.7,3.2-10.9,7L357.1,173.3z M949.2,193.7v40.8c0,12.1-8.3,20.4-20.4,20.4h-61.2v604.9c0,35.1-10.2,65.7-30,91.2c-19.8,26.2-44,38.9-72.1,38.9H234.6c-28.1,0-52.3-12.8-72.1-37.6c-19.8-24.9-30-54.9-30-90V255H71.2c-12.1,0-20.4-8.3-20.4-20.4v-40.8c0-12.1,8.3-20.4,20.4-20.4h197.1l44.7-106.5c12.8-31.3,51-56.8,84.9-56.8h204.2c33.8,0,72.1,25.5,84.9,56.8l44.7,106.5h197.2C940.9,173.3,949.2,181.6,949.2,193.7z"/></g>
</svg>