<?xml version="1.0" encoding="utf-8"?>
<!-- Svg Vector Icons : http://www.onlinewebfonts.com/icon -->
<!DOCTYPE svg PUBLIC "-//W3C//DTD SVG 1.1//EN" "http://www.w3.org/Graphics/SVG/1.1/DTD/svg11.dtd">
<svg version="1.1" xmlns="http://www.w3.org/2000/svg" xmlns:xlink="http://www.w3.org/1999/xlink" x="0px" y="0px" viewBox="0 0 1000 1000" enable-background="new 0 0 1000 1000" xml:space="preserve">
<metadata> Svg Vector Icons : http://www.onlinewebfonts.com/icon </metadata>
<g><path d="M289,532.8L157.3,799.2c-11,30,13,56.8,43,42.9l266.4-131.7c11.5-2.2,22.6-6.7,31.5-15.6l473.3-473.2c23.8-23.7,23.8-62.3,0-86L863.9,28.2c-23.8-23.8-62.3-23.8-86.1,0L304.6,501.3C295.7,510.2,291.2,521.3,289,532.8z M799.4,92.7c11.9-11.9,31.1-11.9,43,0l64.5,64.5c11.9,11.9,11.9,31.1,0,43l-64.5,64.5l-106-109.1L799.4,92.7z M691.1,201l108.3,106.8L455.2,651.9c-27.5-27.5-22-22-19.5-19.4l-2.1-2.1l-64.5-64.5c-11.9-11.9-10.1-10.1-21.5-21.5L691.1,201z M401.6,684.3l-164.5,99.6c-15,7-28.4-7.4-21.5-21.5l99.6-164.5L401.6,684.3z M928.8,377.8v489.5c0,33.6-33.3,61.6-66.9,61.6H131.7c-33.6,0-60.9-27.2-60.9-60.8V138c0-33.6,28-66.2,61.7-66.2h490V10.6h-490C65.3,10.6,10,70.8,10,138v730c0,67.2,54.5,121.7,121.7,121.7h730.2c67.2,0,128.1-55.2,128.1-122.4V377.8H928.8z"/></g>
</svg>