<?xml version="1.0" encoding="utf-8"?>
<!-- Svg Vector Icons : http://www.onlinewebfonts.com/icon -->
<!DOCTYPE svg PUBLIC "-//W3C//DTD SVG 1.1//EN" "http://www.w3.org/Graphics/SVG/1.1/DTD/svg11.dtd">
<svg version="1.1" xmlns="http://www.w3.org/2000/svg" xmlns:xlink="http://www.w3.org/1999/xlink" x="0px" y="0px" viewBox="0 0 1000 1000" enable-background="new 0 0 1000 1000" xml:space="preserve">
<metadata> Svg Vector Icons : http://www.onlinewebfonts.com/icon </metadata>
<g><g transform="translate(0.000000,512.000000) scale(0.100000,-0.100000)"><path d="M4060.3,5016.6c-847.7-78.6-1593.7-360.5-2263-859.2c-234-172.6-663.5-602.2-836.2-836.2c-439.2-590.7-715.3-1250.4-826.6-1975.3c-46-303-46-924.4,0-1227.4C249.6-639,556.4-1344.8,1024.4-1939.3c138.1-176.4,512.1-550.4,688.5-690.4C3028.5-3665.3,4796.7-3851.3,6283-3111.1c153.4,76.7,364.4,195.6,467.9,264.7c103.6,69,195.6,126.6,201.4,126.6c7.7,0,452.6-439.2,991.5-976.2c1106.6-1106.6,1079.7-1085.5,1352-1085.5c347.1,0,604.1,257,604.1,604.1c0,272.3,23,243.6-1095.1,1361.6c-859.2,861.1-981.9,991.5-958.9,1016.4c72.9,76.7,258.9,383.6,383.6,634.8c677,1355.9,583,2972.6-245.5,4236.4c-184.1,281.9-314.5,439.2-565.8,692.3c-257,255.1-416.2,385.5-705.8,573.4c-504.4,327.9-1093.1,552.3-1693.4,642.5C4821.6,5008.9,4230.9,5031.9,4060.3,5016.6z M4731.5,3779.6c391.2-47.9,688.5-136.2,1026-304.9c306.8-153.4,550.4-331.8,795.9-575.3C7493.1,1957.7,7721.3,552,7126.8-639c-151.5-304.9-328-550.4-573.4-795.9c-941.6-939.7-2347.4-1167.9-3538.3-573.4c-304.9,151.5-550.4,327.9-795.9,573.4c-939.7,939.7-1167.9,2347.4-575.3,3538.3c151.5,303,329.9,548.5,575.3,795.9c492.9,492.9,1102.7,790.1,1802.7,880.3C4204.1,3802.6,4545.5,3804.5,4731.5,3779.6z"/></g></g>
</svg>