<?xml version="1.0" encoding="utf-8"?>
<!-- Svg Vector Icons : http://www.onlinewebfonts.com/icon -->
<!DOCTYPE svg PUBLIC "-//W3C//DTD SVG 1.1//EN" "http://www.w3.org/Graphics/SVG/1.1/DTD/svg11.dtd">
<svg version="1.1" xmlns="http://www.w3.org/2000/svg" xmlns:xlink="http://www.w3.org/1999/xlink" x="0px" y="0px" viewBox="0 0 1000 1000" enable-background="new 0 0 1000 1000" xml:space="preserve">
<metadata> Svg Vector Icons : http://www.onlinewebfonts.com/icon </metadata>
<g><g><path d="M799.6,361.2c-4.1,0.8-12.9,5.6-26.5,14.3l-47.2,33l-59,43.6c-20.5,15.7-39.3,31.3-56.5,46.6c-17.2,15.4-32.4,28.9-45.4,40.6c-13.1,11.7-21.5,20.7-25.2,27.1c-0.8,3.3-1.2,12.6-1.2,27.9c0,15.3,0.2,32.1,0.7,50.2c0.5,18.2,0.8,35.3,1.2,51.4c0.5,16.1,1,26.9,1.9,32.1c3.4,0.8,11.7,1.2,25.4,1.2h42.7c15.3,0,29.8,0.2,43.4,0.7c13.7,0.5,22.9,1.1,27.9,2l-1.2,43.1c-4.9,0-16-0.2-33.3-0.6c-17.3-0.5-37.4-0.6-60.4-0.6h-70.2h-66c-9.4,0-23.2,0.2-41.6,0.6c-18.2,0.4-37.7,0.8-58.6,1.2c-20.9,0.4-40.5,0.6-59.1,0.6h-41.6l7.5-40.8H283c12.5,0,25.1-0.2,38.1-0.5c13-0.3,25.3-1.5,37-3.5c11.8-2.1,20.3-5.8,25.8-11.1c2.4-2.5,4.1-10.8,4.9-25c0.8-14.2,1.1-30.5,1.1-48.8c0-18.3,0.2-35.8,0.5-52.3c0.2-16.7,0.6-27.8,1.1-33.3c1-3.4-4.1-11.8-15.2-24.9c-11.2-13.2-24.9-29.4-41.2-48.6l-52.8-62.3l-54.7-64.6l-50.2-51.3c-15.2-15.2-27.2-25.5-35.8-31H10v-54.4h434.1v4.1h1.2l-1.2,9.3v40.9H311.6l49.8,62.4l51,63.8l45.3,56.5l35.3,44.3l176.7-149.7H562.2l-13.8-54.4h383.1l-3.1,3.6h1.9L902,341h-1.4l-11.4,14.5h-66.8c-4.1,1.7-8,2.8-12,3.4C806.5,359.6,802.8,360.3,799.6,361.2z M990,426.1c-2.5,0-10.1-0.4-22.9-1.2c-12.8-0.8-26.9-1.8-42.3-3.1c-15.5-1.2-30.2-2.4-44-3.7c-13.9-1.2-22.6-2.2-26.3-3v253.3l66.9,5.5L990,426.1z M923.9,713.8l-33.2-1.3l-36.2-3.6v63.4l29.2,2.4l30.2,1.3L923.9,713.8z"/><g></g><g></g><g></g><g></g><g></g><g></g><g></g><g></g><g></g><g></g><g></g><g></g><g></g><g></g><g></g></g><g></g><g></g><g></g><g></g><g></g><g></g><g></g><g></g><g></g><g></g><g></g><g></g><g></g><g></g><g></g></g>
</svg>