<?xml version="1.0" encoding="utf-8"?>
<!-- Svg Vector Icons : http://www.onlinewebfonts.com/icon -->
<!DOCTYPE svg PUBLIC "-//W3C//DTD SVG 1.1//EN" "http://www.w3.org/Graphics/SVG/1.1/DTD/svg11.dtd">
<svg version="1.1" xmlns="http://www.w3.org/2000/svg" xmlns:xlink="http://www.w3.org/1999/xlink" x="0px" y="0px" viewBox="0 0 1000 1000" enable-background="new 0 0 1000 1000" xml:space="preserve">
<metadata> Svg Vector Icons : http://www.onlinewebfonts.com/icon </metadata>
<g><g id="e6c6b53d3c8160b22dad35a0f710659c"><path d="M765.5,23.7c-2,5.5-181.8,494.9-231,632.4v14.4v309.8c0,6-3.6,9.5-8.3,9.5h-76.6c-5.9,0-8.3-3.6-8.3-9.5V653.6c-59-148.7-205.2-537.8-207.3-542.1c-2.6-5.4,1.9-14.1,9.8-14.1h80.9c10.7,0,13.5,7.6,15.2,13.7c2.9,11.2,102.7,290.2,113.2,322.5L496,550.8c5-18.8,25.7-97.1,32-119.3c9-31.3,132.2-407.4,133.3-412.6c1.1-5.2,5.7-8.8,13-8.8h82.9C767.2,10,767.9,17.1,765.5,23.7z"/></g></g>
</svg>